<mxfile host="app.diagrams.net" modified="2020-09-25T17:19:40.573Z" agent="5.0 (Windows NT 6.1; Win64; x64) AppleWebKit/537.36 (KHTML, like Gecko) Chrome/85.0.4183.121 Safari/537.36" etag="8FwfdpjrpBkzU2xsoatV" version="13.7.5" type="github">
  <diagram id="4NW8nUL0Qu-XfBTurz9Z" name="Page-1">
    <mxGraphModel dx="1296" dy="722" grid="1" gridSize="10" guides="1" tooltips="1" connect="1" arrows="1" fold="1" page="1" pageScale="1" pageWidth="850" pageHeight="1100" math="0" shadow="0">
      <root>
        <mxCell id="0" />
        <mxCell id="1" parent="0" />
        <mxCell id="8dUzSWV7hPjfR9eVt6SM-1" value="" style="whiteSpace=wrap;html=1;aspect=fixed;strokeWidth=4;strokeColor=#000033;gradientColor=#ffffff;fillColor=#000033;opacity=85;" vertex="1" parent="1">
          <mxGeometry x="135" y="40" width="570" height="570" as="geometry" />
        </mxCell>
        <mxCell id="8dUzSWV7hPjfR9eVt6SM-3" value="" style="ellipse;whiteSpace=wrap;html=1;aspect=fixed;strokeWidth=7;opacity=40;fillColor=#B3B3B3;strokeColor=#660000;" vertex="1" parent="1">
          <mxGeometry x="145" y="50" width="550" height="550" as="geometry" />
        </mxCell>
        <mxCell id="8dUzSWV7hPjfR9eVt6SM-4" value="" style="ellipse;whiteSpace=wrap;html=1;aspect=fixed;strokeWidth=7;gradientColor=#999999;gradientDirection=north;strokeColor=#4D4D4D;shadow=0;sketch=0;fillColor=#CCCCCC;" vertex="1" parent="1">
          <mxGeometry x="190" y="95" width="460" height="460" as="geometry" />
        </mxCell>
        <mxCell id="8dUzSWV7hPjfR9eVt6SM-7" value="" style="ellipse;whiteSpace=wrap;html=1;aspect=fixed;strokeWidth=3;fillColor=#000033;strokeColor=#7D1919;" vertex="1" parent="1">
          <mxGeometry x="410" y="60" width="20" height="20" as="geometry" />
        </mxCell>
        <mxCell id="8dUzSWV7hPjfR9eVt6SM-9" value="" style="ellipse;whiteSpace=wrap;html=1;aspect=fixed;strokeColor=#7D1919;strokeWidth=3;fillColor=#000033;gradientColor=none;" vertex="1" parent="1">
          <mxGeometry x="160" y="315" width="20" height="20" as="geometry" />
        </mxCell>
        <mxCell id="8dUzSWV7hPjfR9eVt6SM-10" value="" style="ellipse;whiteSpace=wrap;html=1;aspect=fixed;strokeColor=#7D1919;strokeWidth=3;fillColor=#000033;gradientColor=none;" vertex="1" parent="1">
          <mxGeometry x="230" y="140" width="20" height="20" as="geometry" />
        </mxCell>
        <mxCell id="8dUzSWV7hPjfR9eVt6SM-14" value="" style="ellipse;whiteSpace=wrap;html=1;aspect=fixed;strokeColor=#7D1919;strokeWidth=3;fillColor=#000033;gradientColor=none;" vertex="1" parent="1">
          <mxGeometry x="660" y="315" width="20" height="20" as="geometry" />
        </mxCell>
        <mxCell id="8dUzSWV7hPjfR9eVt6SM-16" value="" style="ellipse;whiteSpace=wrap;html=1;aspect=fixed;strokeColor=#7D1919;strokeWidth=3;fillColor=#000033;gradientColor=none;" vertex="1" parent="1">
          <mxGeometry x="590" y="140" width="20" height="20" as="geometry" />
        </mxCell>
        <mxCell id="8dUzSWV7hPjfR9eVt6SM-17" value="" style="ellipse;whiteSpace=wrap;html=1;aspect=fixed;strokeColor=#7D1919;strokeWidth=3;fillColor=#000033;gradientColor=none;" vertex="1" parent="1">
          <mxGeometry x="412.5" y="570" width="20" height="20" as="geometry" />
        </mxCell>
        <mxCell id="8dUzSWV7hPjfR9eVt6SM-18" value="" style="ellipse;whiteSpace=wrap;html=1;aspect=fixed;strokeColor=#7D1919;strokeWidth=3;fillColor=#000033;gradientColor=none;" vertex="1" parent="1">
          <mxGeometry x="590" y="490" width="20" height="20" as="geometry" />
        </mxCell>
        <mxCell id="8dUzSWV7hPjfR9eVt6SM-19" value="" style="ellipse;whiteSpace=wrap;html=1;aspect=fixed;strokeColor=#7D1919;strokeWidth=3;fillColor=#000033;gradientColor=none;" vertex="1" parent="1">
          <mxGeometry x="230" y="490" width="20" height="20" as="geometry" />
        </mxCell>
        <mxCell id="8dUzSWV7hPjfR9eVt6SM-20" value="" style="ellipse;whiteSpace=wrap;html=1;aspect=fixed;strokeWidth=4;opacity=70;shadow=0;strokeColor=#1A1A1A;" vertex="1" parent="1">
          <mxGeometry x="280" y="190" width="60" height="60" as="geometry" />
        </mxCell>
        <mxCell id="8dUzSWV7hPjfR9eVt6SM-26" value="" style="ellipse;whiteSpace=wrap;html=1;aspect=fixed;shadow=0;sketch=0;strokeWidth=4;opacity=70;strokeColor=#1A1A1A;" vertex="1" parent="1">
          <mxGeometry x="500" y="190" width="60" height="60" as="geometry" />
        </mxCell>
        <mxCell id="8dUzSWV7hPjfR9eVt6SM-29" value="" style="ellipse;whiteSpace=wrap;html=1;aspect=fixed;shadow=0;sketch=0;strokeWidth=4;opacity=70;" vertex="1" parent="1">
          <mxGeometry x="280" y="410" width="60" height="60" as="geometry" />
        </mxCell>
        <mxCell id="8dUzSWV7hPjfR9eVt6SM-30" value="" style="ellipse;whiteSpace=wrap;html=1;aspect=fixed;shadow=0;sketch=0;strokeWidth=4;opacity=70;" vertex="1" parent="1">
          <mxGeometry x="500" y="410" width="60" height="60" as="geometry" />
        </mxCell>
        <mxCell id="8dUzSWV7hPjfR9eVt6SM-37" value="" style="whiteSpace=wrap;html=1;aspect=fixed;shadow=0;sketch=0;strokeColor=#000066;strokeWidth=2;fillColor=#999999;gradientColor=none;rotation=-45;" vertex="1" parent="1">
          <mxGeometry x="400" y="150" width="40" height="40" as="geometry" />
        </mxCell>
        <mxCell id="8dUzSWV7hPjfR9eVt6SM-38" value="" style="whiteSpace=wrap;html=1;aspect=fixed;shadow=0;sketch=0;strokeColor=#000066;strokeWidth=2;fillColor=#999999;gradientColor=none;rotation=-45;" vertex="1" parent="1">
          <mxGeometry x="550" y="305" width="40" height="40" as="geometry" />
        </mxCell>
        <mxCell id="8dUzSWV7hPjfR9eVt6SM-39" value="" style="whiteSpace=wrap;html=1;aspect=fixed;shadow=0;sketch=0;strokeColor=#000066;strokeWidth=2;fillColor=#999999;gradientColor=none;rotation=-45;" vertex="1" parent="1">
          <mxGeometry x="250" y="305" width="40" height="40" as="geometry" />
        </mxCell>
        <mxCell id="8dUzSWV7hPjfR9eVt6SM-40" value="" style="whiteSpace=wrap;html=1;aspect=fixed;shadow=0;sketch=0;strokeColor=#000066;strokeWidth=2;fillColor=#999999;gradientColor=none;rotation=-45;" vertex="1" parent="1">
          <mxGeometry x="400" y="450" width="40" height="40" as="geometry" />
        </mxCell>
        <mxCell id="8dUzSWV7hPjfR9eVt6SM-42" value="" style="ellipse;whiteSpace=wrap;html=1;aspect=fixed;shadow=0;sketch=0;strokeWidth=4;opacity=50;fontColor=#333333;strokeColor=#660000;fillColor=#CCCCCC;" vertex="1" parent="1">
          <mxGeometry x="347.5" y="252.5" width="145" height="145" as="geometry" />
        </mxCell>
        <mxCell id="8dUzSWV7hPjfR9eVt6SM-43" value="" style="ellipse;whiteSpace=wrap;html=1;shadow=0;sketch=0;strokeWidth=2;gradientColor=none;opacity=30;strokeColor=#6666FF;fillColor=#CCCCFF;" vertex="1" parent="1">
          <mxGeometry x="310" y="285" width="220" height="80" as="geometry" />
        </mxCell>
        <mxCell id="8dUzSWV7hPjfR9eVt6SM-45" value="" style="ellipse;whiteSpace=wrap;html=1;shadow=0;sketch=0;strokeWidth=2;opacity=50;rotation=-90;fillColor=#CCCCFF;strokeColor=#3333FF;" vertex="1" parent="1">
          <mxGeometry x="310" y="285" width="220" height="80" as="geometry" />
        </mxCell>
        <mxCell id="8dUzSWV7hPjfR9eVt6SM-46" value="&lt;b&gt;&lt;font style=&quot;font-size: 19px&quot;&gt;&lt;u&gt;&lt;strike&gt;BRYAN DOMINGUEZ&lt;/strike&gt;&lt;/u&gt;&lt;/font&gt;&lt;/b&gt;" style="text;html=1;strokeColor=none;fillColor=none;align=center;verticalAlign=middle;whiteSpace=wrap;rounded=0;shadow=0;sketch=0;opacity=30;" vertex="1" parent="1">
          <mxGeometry x="305" y="630" width="230" height="70" as="geometry" />
        </mxCell>
      </root>
    </mxGraphModel>
  </diagram>
</mxfile>
